<?xml version="1.0" encoding="UTF-8"?>
<svg version="1.1" viewBox="0 0 1120 960" width="280" height="240" xmlns="http://www.w3.org/2000/svg">
<path transform="translate(647,204)" d="m0 0h9l6 4 4 5 2 1v2h2v2l3 1 9 11 5 7 4 10 3 4 3 9 3 4 2 7 5 9 5-1 21-14 27-14 4-2h7l10-3h7l5 4 1 4-7 2-18 6-9 2-16 8-16 10-11 7-3 4v7l8 23 3 6 6-1 6-2 8-2 9-4 16-1 16-6h16l2 5-1 4-1 1-11 2-21 5h-8l-26 9-6 1 1 5 11 21 4 10 6 12 5 16 11 32 6 14 8 25 7 24 4 18 3 9 1 12 2 3 2 14 2 4 2 10 2 6v15l3 5v17l2 3v57l-3 1 1 13-1 11h21l3-3h9l2-2 15-2 8-3 23-9 6-2 22-11 9-3h20l6 4 6 7 1 3v15l-5 10-6 7-8 6-15 9-14 5-16 6-5 2-9 1-3 2-11 3-22 1-2 2-48 1-8 7-23 23-9 6-6 5-24 9-9 2-6 2-6 1-1 9-9 11h-2l-2 4-4 1-24-1-15-15h-183l-2-4-13 1h-12l-5-3h-4l-1 8-8 9-5 2h-13l-11-7-4-5-2-8-1-2-1-9-2-3-10-3-10-4-8-5-15-8-7-4-31-31-5-8-7-15-2-13-4-10-1-2v-98l2-4 2-10 2-5 1-22 2-4 2-11 4-15 5-16 6-19 5-17 13-38 4-11 1-5 5-11 5-12 10-21 5-11 1-5-8-3-6-2-9-1-3-2h-8l-7-2-1-1-18-1-5-4v-5l1-1h27l5 3h10l2 2 14 2 13 7 2-6 9-16 8-10 1-3-7-7-2-1v-2l-4-2-6-4-8-7-5-5-34-17-9-3v-4l6-4 8 1 17 9 21 10 10 9 16 16 4-1 9-16 6-9 5-8 5-6 8-16 10-14 12-12 9-4h16l9 4 9 8 11 15 20 20 2 4h51l16-1 23-23 7-10 15-15z" fill="#B2A7A0"/>
<path transform="translate(647,204)" d="m0 0h9l6 4 4 5 2 1v2h2v2l3 1 9 11 5 7 4 10 3 4 3 9 3 4 2 7 5 9 5-1 21-14 27-14 4-2h7l10-3h7l5 4 1 4-7 2-18 6-9 2-16 8-16 10-11 7-3 4v7l8 23 3 6 6-1 6-2 8-2 9-4 16-1 16-6h16l2 5-1 4-1 1-11 2-21 5h-8l-26 9-6 1 1 5 11 21 4 10 6 12 5 16 11 32 6 14 8 25 7 24 4 18 3 9 1 12 2 3 2 14 2 4 2 10 2 6v15l3 5v17l2 3v57l-3 1 1 13-1 11h21l3-3h9l2-2 15-2 8-3 23-9 6-2 22-11 9-3h20l6 4 6 7 1 3v15l-5 10-6 7-8 6-15 9-14 5-16 6-5 2-9 1-3 2-11 3-22 1-2 2-48 1-8 7-23 23-9 6-6 5-24 9-9 2-6 2-6 1-1 9-9 11h-2l-2 4-4 1-24-1-15-15h-183l-2-4-13 1h-12l-5-3h-4l-1 8-8 9-5 2h-13l-11-7-4-5-2-8-1-2-1-9-2-3-10-3-10-4-8-5-15-8-7-4-31-31-5-8-7-15-2-13-4-10-1-2v-98l2-4 2-10 2-5 1-22 2-4 2-11 4-15 5-16 6-19 5-17 13-38 4-11 1-5 5-11 5-12 10-21 5-11 1-5-8-3-6-2-9-1-3-2h-8l-7-2-1-1-18-1-5-4v-5l1-1h27l5 3h10l2 2 14 2 13 7 2-6 9-16 8-10 1-3-7-7-2-1v-2l-4-2-6-4-8-7-5-5-34-17-9-3v-4l6-4 8 1 17 9 21 10 10 9 16 16 4-1 9-16 6-9 5-8 5-6 8-16 10-14 12-12 9-4h16l9 4 9 8 11 15 20 20 2 4h51l16-1 23-23 7-10 15-15zm4 11-5 2-11 9-7 8-12 14-9 10-10 10v2l-5 2-7 2-3 10-4 6-7 1-4-4v-14h-11l-3 12-4 7-4 3-7-1-1-4v-10l1-7h-12l-4 10-5 5h-9l-1-4v-8l2-5v-6l-8-8-18-22-9-10-10-5-7 1-8 6-10 10-9 13-12 20-13 22-8 14 1 4 11 12 1 5-4 3-5-2-7-7-2-3-4 1-11 19-4 7v3l15 8 4 4v5l-1 1-7-1-12-7h-5l-8 16-12 26-9 23-19 57-10 33-6 23-6 31-4 29-3 26v30l4 34 4 17 6 15 5 9 12 14 7 7 15 11 14 8 16 8 16 7 4 3 1 14 6 10 7 2h7l5-8 5-10h7l24 4 29 2h70l66-2h38l2 10 4 6 7 3h12l6-5 4-5 3-12v-2l17-3 16-6 21-11 11-8 9-7 17-16 5-5 3-17 2-24 5-34v-33l-2-19-1-3-11 3h-16l-8-4-4-8v-9l4-8 11-7 12-5 6-3-3-16-12-48-7 1-6 3-4 1h-11l-10-5-4-7v-14l4-6 1-3 4-2 10-6 9-4-1-7-13-35-11-31-20-40-6 1-20 9-7 1-1-8 4-2 21-10 5-2-2-6-10-25-4 1-7 8-6 9-7-2 1-8 8-11 10-9-1-7-11-24-10-20-8-12-7-9-6-4z" fill="#633110"/>
<path transform="translate(875,696)" d="m0 0h2l4 8 6 17v3l-16 5h-5v2l-23 3-26 1v-14l1-11 8-4 25-4 18-4z" fill="#66594E"/>
<path transform="translate(538,338)" d="m0 0h5l3 5 4 8 6 4h15l1 4-3 5-6 5-6 11-5 5-7 4-5 1h-7l-8-4-5-6-5-13-5-5v-6l2-1h12l6-4 4-5z" fill="#602F0F"/>
<path transform="translate(764,455)" d="m0 0 2 3 9 29 5 17-1 4-1-7-7 2-6 3-4 1h-11l-10-5-4-5-1-3v-14l4-6 5-5 9-6 9-4h2z" fill="#66594E"/>
<path transform="translate(793,563)" d="m0 0h1l5 32 1 14-1-3-11 4h-16l-8-4-4-6-1-3v-9l4-8 10-7 11-5 8-3z" fill="#66594E"/>
<path transform="translate(625,470)" d="m0 0h14l7 3 5 6v5l-5 1-4-3-4-1h-9l-8 4-6 9-1 3v10l1 4 4 2 5 1 5-3 5-6 3-6 5-1 3 2-1 9-6 9-8 6-3 1h-9l-6-3-7-8-3-9v-8l4-11 7-9 5-4z" fill="#602F0E"/>
<path transform="translate(394,468)" d="m0 0h14l12 6 2 3-1 5-3 1-10-3h-10l-6 3-4 5-2 5v8l3 6 5 2 6-1 4-5 5-8 7 1 1 4-3 9-6 7-9 4h-9l-8-4-6-8-2-7v-9l3-9 6-8 8-6z" fill="#603112"/>
<path transform="translate(452,331)" d="m0 0h8l8 4 5 7 1 3v7l-4 8-9 6h-9l-6-3-6-7-1-2v-10l5-8z" fill="#5F2C0A"/>
<path transform="translate(626,331)" d="m0 0 9 2 6 5 3 8v7l-5 8-6 4-3 1h-7l-6-3-6-7-2-5 1-8 4-6 8-5z" fill="#5F2B08"/>
<path transform="translate(919,677)" d="m0 0h4l8 17 4 7-1 4-19 10-5 1-10-30z" fill="#B2A7A0"/>
<path transform="translate(899,686)" d="m0 0 2 1 10 30-17 6-9 2 2-1-7-20-3-6v-2l-2-1 16-6z" fill="#66594E"/>
<path transform="translate(526,272)" d="m0 0h66v1l-6 1-3 10-4 6-3 2-7-1-3-4v-11l1-3h-11l-1 10-4 8-6 5-5-1-3-3-1-2v-10l2-7h-12z" fill="#66594E"/>
<path transform="translate(797,689)" d="m0 0h1v15l3 2 17 1h7l-6 3-2 25h5v1l-29 1-3 3-2-1 3-3 3-17 2-24z" fill="#66594E"/>
<path transform="translate(875,696)" d="m0 0h2l4 8 6 17v3l-16 5-9 1-4-27 1-2z" fill="#B2A7A0"/>
<path transform="translate(829,707)" d="m0 0h7l3 18v8l-1 1-21 1v-14l1-11 3-2z" fill="#B2A7A0"/>
<path transform="translate(937,672)" d="m0 0 7 1 5 3 1 1v9l-6 10-8 8-2-3-11-22v-2l-3-1z" fill="#66594E"/>
<path transform="translate(538,357)" d="m0 0 5 1 8 8-2 6-3 5-5 3h-7l-5-5-1-2v-8l9-7z" fill="#B2A7A0"/>
<path transform="translate(500,255)" d="m0 0 7 6 6 7v3l9 1 4 1-3 10-4 5-2 1h-7l-3-3-1-2v-8l2-5v-6l-8-8z" fill="#66594E"/>
<path transform="translate(621,805)" d="m0 0 29 1 3 5-1 3-4-4-96-1v-1l15-1 36-1z" fill="#887C73"/>
<path transform="translate(283,584)" d="m0 0h1v9l-1 3v85l1 8-3-3v-98z" fill="#7B6E64"/>
<path transform="translate(958,691)" d="m0 0 1 3-6 9-4 5-6 5-2-1 5-5 5-6h2l2-5z" fill="#988C84"/>
<path transform="translate(808,688)" d="m0 0h2l-1 9h16v1l-6 1h-11l-2-2z" fill="#B3A8A1"/>
<path transform="translate(314,252)" d="m0 0 8 1 6 3-3 1-5-2-9 1-1 2 3 2-1 2-5-3 2-4z" fill="#8A7C72"/>
<path transform="translate(283,584)" d="m0 0h1v9l-2 11h-1v-16z" fill="#B6ABA5"/>
<path transform="translate(747,382)" d="m0 0 3 1 5 13-1 3-4-8v-4h-2z" fill="#93877F"/>
<path transform="translate(781,246)" d="m0 0h7l-5 5-4-1-4-2z" fill="#816D5E"/>
<path transform="translate(647,204)" d="m0 0h9l5 3-3 1-9-2-6 1z" fill="#BDB4AF"/>
<path transform="translate(788,248)" d="m0 0 5 2 1 4-4 1-2-3z" fill="#785239"/>
<path transform="translate(353,269)" d="m0 0 10 5 4 5-5-2-9-6z" fill="#ACA19A"/>
</svg>
